<svg height="512" viewBox="0 0 192 192" width="512" xmlns="http://www.w3.org/2000/svg"><path d="m151.949 105.972c-8.252 9.98-17.588 20.236-27.664 30.312s-20.331 19.416-30.309 27.665c.673.024 1.345.051 2.024.051a56.063 56.063 0 0 0 56-56c0-.68-.027-1.354-.051-2.028z"/><path d="m175.2 28.805c-7.758-7.761-21.966-5.009-43.436 8.411a256.417 256.417 0 0 0 -22.843 16.3 55.963 55.963 0 0 0 -67.4 67.4 256.213 256.213 0 0 0 -16.3 22.843c-13.421 21.471-16.175 35.679-8.421 43.441a15.16 15.16 0 0 0 11.229 4.288c7.973 0 18.64-4.219 32.207-12.7 17.593-11 38.329-28.1 58.388-48.156s37.16-40.795 48.156-58.388c13.42-21.474 16.174-35.682 8.42-43.439zm-24.36 38.659c-10.413 15.783-25.869 34.2-43.523 51.849s-36.066 33.11-51.849 43.523c-15.531 10.246-23.9 12.569-26.977 12.677.108-3.075 2.431-11.446 12.677-26.977 2.271-3.442 4.8-7.015 7.516-10.672a56.528 56.528 0 0 0 10.727 12.473 370.122 370.122 0 0 0 42.249-36.68 370.2 370.2 0 0 0 36.68-42.246 56.49 56.49 0 0 0 -12.476-10.731c3.657-2.721 7.23-5.245 10.672-7.516 15.531-10.246 23.9-12.569 26.977-12.677-.108 3.076-2.431 11.446-12.677 26.977z"/><path d="m24 32a20.023 20.023 0 0 1 20 20 4 4 0 0 0 8 0 20.023 20.023 0 0 1 20-20 4 4 0 0 0 0-8 20.023 20.023 0 0 1 -20-20 4 4 0 0 0 -8 0 20.023 20.023 0 0 1 -20 20 4 4 0 0 0 0 8z"/><circle cx="152" cy="168" r="8"/><circle cx="16" cy="104" r="8"/><circle cx="176" cy="96" r="8"/></svg>